<?xml version="1.0" encoding="UTF-8" standalone="no"?>
<!-- Created with Inkscape (http://www.inkscape.org/) -->
<svg
   xmlns:dc="http://purl.org/dc/elements/1.1/"
   xmlns:cc="http://creativecommons.org/ns#"
   xmlns:rdf="http://www.w3.org/1999/02/22-rdf-syntax-ns#"
   xmlns:svg="http://www.w3.org/2000/svg"
   xmlns="http://www.w3.org/2000/svg"
   xmlns:sodipodi="http://sodipodi.sourceforge.net/DTD/sodipodi-0.dtd"
   xmlns:inkscape="http://www.inkscape.org/namespaces/inkscape"
   width="175"
   height="175"
   id="svg4002"
   sodipodi:version="0.32"
   inkscape:version="0.46"
   version="1.0"
   sodipodi:docname="checkmark.svg"
   inkscape:output_extension="org.inkscape.output.svg.inkscape">
  <defs
     id="defs4004">
    <inkscape:perspective
       sodipodi:type="inkscape:persp3d"
       inkscape:vp_x="0 : 526.18109 : 1"
       inkscape:vp_y="0 : 1000 : 0"
       inkscape:vp_z="744.09448 : 526.18109 : 1"
       inkscape:persp3d-origin="372.04724 : 350.78739 : 1"
       id="perspective4010" />
  </defs>
  <sodipodi:namedview
     id="base"
     pagecolor="#ffffff"
     bordercolor="#666666"
     borderopacity="1.0"
     gridtolerance="10000"
     guidetolerance="10"
     objecttolerance="10"
     inkscape:pageopacity="0.0"
     inkscape:pageshadow="2"
     inkscape:zoom="0.98994949"
     inkscape:cx="189.48749"
     inkscape:cy="57.427901"
     inkscape:document-units="px"
     inkscape:current-layer="layer1"
     showgrid="false"
     inkscape:window-width="1181"
     inkscape:window-height="722"
     inkscape:window-x="0"
     inkscape:window-y="25" />
  <metadata
     id="metadata4007">
    <rdf:RDF>
      <cc:Work
         rdf:about="">
        <dc:format>image/svg+xml</dc:format>
        <dc:type
           rdf:resource="http://purl.org/dc/dcmitype/StillImage" />
      </cc:Work>
    </rdf:RDF>
  </metadata>
  <g
     inkscape:label="Layer 1"
     inkscape:groupmode="layer"
     id="layer1">
    <path
       style="fill:#ed1c24;fill-opacity:1;stroke:none;stroke-width:2.85714293;stroke-miterlimit:4;stroke-dasharray:none;stroke-opacity:1"
       d="M 32.794089,161.91122 C 29.469429,161.43432 26.576579,160.76436 26.365549,160.42239 C 26.154559,160.08042 25.176779,158.5149 24.192749,156.94348 C 21.427089,152.52688 19.497019,147.75612 16.390399,137.65776 C 10.852619,119.65656 9.7749886,114.97575 10.516179,112.14146 C 11.660659,107.76492 21.583229,101.58029 27.762199,101.39215 C 32.747589,101.24036 33.327579,101.66963 36.227899,107.65776 C 37.940389,111.19348 40.451119,116.81848 41.807249,120.15776 C 43.163389,123.49705 45.148099,126.22919 46.217729,126.22919 C 47.287379,126.22919 51.317249,121.24705 55.173029,115.15776 C 59.028759,109.06848 62.790489,103.40299 63.532319,102.56778 C 64.274099,101.73258 65.708629,99.482576 66.720059,97.567776 C 71.057049,89.357216 106.19199,41.165186 116.64725,29.086326 C 119.0276,26.336326 120.97668,23.610756 120.97852,23.029486 C 120.9804,22.448216 124.35688,19.786256 128.48188,17.113976 C 134.11798,13.462776 138.1145,12.053496 144.56316,11.443296 C 156.48676,10.315056 157.61092,11.397016 152.58973,19.168716 C 150.33465,22.659096 147.27015,26.800616 145.77976,28.372046 C 144.28938,29.943476 139.868,35.407756 135.95449,40.514896 C 132.04099,45.622046 128.13513,50.443476 127.27482,51.229186 C 126.41448,52.014896 124.19549,54.907756 122.34365,57.657756 C 120.4918,60.407756 118.62428,62.979186 118.19356,63.372046 C 114.45853,66.778826 74.376389,122.57329 70.985159,129.08633 C 69.962359,131.05062 68.739679,132.97919 68.268019,133.37205 C 67.796379,133.7649 63.687199,139.68996 59.136559,146.53886 C 54.585979,153.3877 50.170819,159.41898 49.325199,159.94159 C 46.225289,161.85743 38.683949,162.75595 32.794119,161.91118 L 32.794089,161.91122 z"
       id="Checkmark_Vee"
       inkscape:label="#check" />
  </g>
</svg>
